<?xml version="1.0" encoding="UTF-8" standalone="no"?>
<!-- Created with Inkscape (http://www.inkscape.org/) -->
<svg
   xmlns:dc="http://purl.org/dc/elements/1.1/"
   xmlns:cc="http://creativecommons.org/ns#"
   xmlns:rdf="http://www.w3.org/1999/02/22-rdf-syntax-ns#"
   xmlns:svg="http://www.w3.org/2000/svg"
   xmlns="http://www.w3.org/2000/svg"
   xmlns:sodipodi="http://sodipodi.sourceforge.net/DTD/sodipodi-0.dtd"
   xmlns:inkscape="http://www.inkscape.org/namespaces/inkscape"
   width="180"
   height="270"
   id="svg2"
   sodipodi:version="0.32"
   inkscape:version="0.46"
   version="1.0"
   sodipodi:docname="card-label.svg"
   inkscape:output_extension="org.inkscape.output.svg.inkscape"
   inkscape:export-filename="D:\Download\card_2221.png"
   inkscape:export-xdpi="90"
   inkscape:export-ydpi="90"
   style="display:inline;enable-background:new">
  <sodipodi:namedview
     id="base"
     pagecolor="#ffffff"
     bordercolor="#666666"
     borderopacity="1.0"
     gridtolerance="10000"
     guidetolerance="10"
     objecttolerance="10"
     inkscape:pageopacity="0.0"
     inkscape:pageshadow="2"
     inkscape:zoom="1.982"
     inkscape:cx="100.7961"
     inkscape:cy="85.152603"
     inkscape:document-units="px"
     inkscape:current-layer="layer3"
     showgrid="false"
     showguides="true"
     inkscape:guide-bbox="true"
     inkscape:window-width="1710"
     inkscape:window-height="1174"
     inkscape:window-x="202"
     inkscape:window-y="0" />
  <defs
     id="defs4" />
  <metadata
     id="metadata7">
    <rdf:RDF>
      <cc:Work
         rdf:about="">
        <dc:format>image/svg+xml</dc:format>
        <dc:type
           rdf:resource="http://purl.org/dc/dcmitype/StillImage" />
      </cc:Work>
    </rdf:RDF>
  </metadata>
  <g
     style="display:inline"
     inkscape:label="Diamond"
     id="layer3"
     inkscape:groupmode="layer">
    <path
       style="opacity:1;fill:#ff0079;fill-opacity:0.58823529;fill-rule:nonzero;stroke:none;stroke-width:3;stroke-linecap:butt;stroke-miterlimit:4;stroke-dasharray:none;stroke-dashoffset:0;stroke-opacity:1"
       d=""
       id="path5144" />
    <rect
       inkscape:transform-center-y="-0.075075587"
       inkscape:transform-center-x="0.076872615"
       transform="matrix(0.8970824,0.4418633,-0.8970824,0.4418633,0,0)"
       y="17.724274"
       x="51.166016"
       height="32.951168"
       width="32.951168"
       id="rect2404"
       style="fill:#ff0079;fill-opacity:0.58823529;stroke:#ff0079;stroke-width:0.98853493;stroke-miterlimit:4;stroke-dasharray:none;stroke-opacity:1;display:inline;enable-background:new" />
    <rect
       inkscape:transform-center-y="-0.075106451"
       inkscape:transform-center-x="0.076863944"
       transform="matrix(0.8970824,0.4418633,-0.8970824,0.4418633,0,0)"
       y="51.671421"
       x="85.113167"
       height="32.951168"
       width="32.951168"
       id="rect2407"
       style="fill:none;fill-opacity:0.58823529;stroke:#ff0079;stroke-width:0.98853505;stroke-miterlimit:4;stroke-dasharray:none;stroke-opacity:1;display:inline;enable-background:new" />
    <rect
       style="fill:#38cd41;fill-opacity:0.58823529;stroke:#38cd41;stroke-width:0.9885667;stroke-miterlimit:4;stroke-dasharray:none;stroke-opacity:1;display:inline;enable-background:new"
       id="rect2580"
       width="32.951153"
       height="32.951153"
       x="153.00748"
       y="119.56572"
       transform="matrix(0.8970824,0.4418633,-0.8970824,0.4418633,0,0)"
       inkscape:transform-center-x="0.076896572"
       inkscape:transform-center-y="-0.075077473" />
    <rect
       style="fill:none;fill-opacity:0.58823529;stroke:#38cd41;stroke-width:0.98856682;stroke-miterlimit:4;stroke-dasharray:none;stroke-opacity:1;display:inline;enable-background:new"
       id="rect2582"
       width="32.951153"
       height="32.951153"
       x="186.95462"
       y="153.51288"
       transform="matrix(0.8970824,0.4418633,-0.8970824,0.4418633,0,0)"
       inkscape:transform-center-x="0.076911856"
       inkscape:transform-center-y="-0.075093166" />
    <rect
       inkscape:transform-center-y="-0.075051274"
       inkscape:transform-center-x="0.076869562"
       transform="matrix(0.8970825,0.4418632,-0.8970825,0.4418632,0,0)"
       y="221.40723"
       x="254.849"
       height="32.951153"
       width="32.951153"
       id="rect3426"
       style="fill:#6464c8;fill-opacity:0.58823529;stroke:#6464c8;stroke-width:0.98856717;stroke-miterlimit:4;stroke-dasharray:none;stroke-opacity:1;display:inline;enable-background:new" />
    <rect
       inkscape:transform-center-y="-0.075036923"
       inkscape:transform-center-x="0.076861377"
       transform="matrix(0.8970825,0.4418632,-0.8970825,0.4418632,0,0)"
       y="255.35442"
       x="288.79614"
       height="32.951153"
       width="32.951153"
       id="rect3428"
       style="fill:none;fill-opacity:0.58823529;stroke:#6464c8;stroke-width:0.98856717;stroke-miterlimit:4;stroke-dasharray:none;stroke-opacity:1;display:inline;enable-background:new" />
    <g
       id="g4924"
       transform="matrix(0.3018291,0,0,0.2956487,70.549058,150.1648)">
      <rect
         inkscape:transform-center-y="-2.6537281"
         inkscape:transform-center-x="2.6775368"
         transform="matrix(0.8934092,0.4492438,-0.8934092,0.4492438,0,0)"
         y="189.16078"
         x="38.787865"
         height="109.58414"
         width="109.58414"
         id="rect3432"
         style="fill:none;fill-opacity:1;fill-rule:nonzero;stroke:#6464c8;stroke-width:3.36158776;stroke-miterlimit:4;stroke-dasharray:none;stroke-opacity:1;display:inline;enable-background:new" />
      <path
         id="path4884"
         d="M -216.0738,158.00478 L -220.43988,155.82028 L -211.61106,151.39609 C -206.7552,148.96278 -185.46845,138.31402 -164.30717,127.73218 L -125.83212,108.49247 L -121.50439,110.65777 L -117.17668,112.82307 L -123.18748,115.83701 C -126.49344,117.49468 -129.29892,118.85233 -129.42192,118.85401 C -129.54491,118.85569 -133.89997,121.01551 -139.09981,123.65361 C -144.29965,126.29171 -158.1867,133.28343 -169.95992,139.19076 C -181.73314,145.09809 -191.96781,150.27501 -192.70364,150.69502 C -193.43947,151.11503 -197.65374,153.24148 -202.0687,155.42047 C -206.48366,157.59945 -210.45856,159.56384 -210.90181,159.78577 L -211.70773,160.18927 L -216.0738,158.00478 z"
         style="opacity:1;fill:#6464c9;fill-opacity:0.58823529;fill-rule:nonzero;stroke:none;stroke-width:1;stroke-linecap:butt;stroke-miterlimit:4;stroke-dasharray:none;stroke-dashoffset:0;stroke-opacity:1" />
      <path
         id="path4886"
         d="M -198.23425,166.98554 L -202.42699,164.82379 L -189.04757,158.09103 C -181.68889,154.388 -173.5008,150.24425 -170.85183,148.88268 C -168.20285,147.52111 -152.97912,139.88218 -137.02128,131.90727 L -108.00707,117.40743 L -103.79761,119.50989 C -101.48242,120.66624 -99.588166,121.65733 -99.588166,121.7123 C -99.588166,121.76728 -112.21093,128.14112 -127.63876,135.8764 C -143.06658,143.61168 -156.21111,150.23984 -156.84883,150.60564 C -158.20895,151.38584 -193.72558,169.15648 -193.91381,169.15099 C -193.98404,169.14895 -195.92824,168.17449 -198.23425,166.98554 z"
         style="opacity:1;fill:#6464c9;fill-opacity:0.58823529;fill-rule:nonzero;stroke:none;stroke-width:1;stroke-linecap:butt;stroke-miterlimit:4;stroke-dasharray:none;stroke-dashoffset:0;stroke-opacity:1" />
      <path
         id="path4888"
         d="M -180.21697,176.02239 L -184.55437,173.85223 L -183.05456,173.03501 C -182.22967,172.58554 -175.33368,169.10762 -167.73014,165.3063 C -160.1266,161.50498 -149.37016,156.08911 -143.82693,153.27102 C -132.86758,147.69946 -94.925417,128.70657 -91.956871,127.30617 L -90.122995,126.44106 L -85.809412,128.59568 L -81.495829,130.7503 L -92.192032,136.07695 C -115.2923,147.58076 -120.3243,150.10292 -121.16823,150.60051 C -121.65038,150.8848 -131.62167,155.9071 -143.32666,161.76117 C -155.03163,167.61524 -165.13777,172.7134 -165.78471,173.09041 C -166.43166,173.46741 -168.96766,174.76963 -171.42027,175.98422 L -175.87956,178.19254 L -180.21697,176.02239 z"
         style="opacity:1;fill:#6464c9;fill-opacity:0.58823529;fill-rule:nonzero;stroke:none;stroke-width:1;stroke-linecap:butt;stroke-miterlimit:4;stroke-dasharray:none;stroke-dashoffset:0;stroke-opacity:1" />
      <path
         id="path4890"
         d="M -162.42327,185.02043 C -164.75339,183.84796 -166.65985,182.84519 -166.65985,182.79205 C -166.65985,182.73891 -165.9976,182.39069 -165.1882,182.01823 C -164.37879,181.64576 -158.9805,178.92982 -153.192,175.98283 C -142.70418,170.64333 -107.50733,152.94237 -84.576899,141.4754 C -77.939513,138.1562 -72.400748,135.4448 -72.268531,135.45006 C -72.136297,135.45533 -70.145231,136.40715 -67.843905,137.56523 L -63.659667,139.67083 L -73.908898,144.80297 C -79.545969,147.62565 -84.760151,150.27792 -85.495977,150.6969 C -86.231803,151.11587 -90.446081,153.24977 -94.861039,155.43888 C -112.28997,164.08085 -128.99011,172.44317 -130.09151,173.07996 C -131.04814,173.63304 -158.07521,187.19231 -158.16009,187.16173 C -158.17472,187.15647 -160.09316,186.19287 -162.42327,185.02042 L -162.42327,185.02043 z"
         style="opacity:1;fill:#6464c9;fill-opacity:0.58823529;fill-rule:nonzero;stroke:none;stroke-width:1;stroke-linecap:butt;stroke-miterlimit:4;stroke-dasharray:none;stroke-dashoffset:0;stroke-opacity:1" />
      <path
         id="path4892"
         d="M -144.63431,193.91676 L -148.92014,191.76337 L -131.07727,182.8022 C -121.26368,177.87357 -110.88411,172.62607 -108.01155,171.14111 C -105.13899,169.65615 -102.70682,168.44119 -102.60675,168.44119 C -102.40578,168.44119 -70.774153,152.55422 -63.554974,148.82745 C -61.053165,147.53594 -58.00283,145.99594 -56.776453,145.40523 L -54.546677,144.3312 L -50.310101,146.43842 C -47.979984,147.59739 -46.075273,148.58711 -46.077432,148.6378 C -46.085066,148.81841 -50.542051,151.08946 -71.671361,161.67919 C -83.444582,167.57976 -93.679257,172.75208 -94.415084,173.1732 C -95.15091,173.59434 -97.358389,174.72625 -99.320592,175.68859 C -101.2828,176.65092 -111.2977,181.63503 -121.57592,186.76435 C -131.85416,191.89369 -140.28271,196.08587 -140.30605,196.08029 C -140.3294,196.07472 -142.2771,195.10115 -144.63431,193.91676 z"
         style="opacity:1;fill:#6464c9;fill-opacity:0.58823529;fill-rule:nonzero;stroke:none;stroke-width:1;stroke-linecap:butt;stroke-miterlimit:4;stroke-dasharray:none;stroke-dashoffset:0;stroke-opacity:1" />
    </g>
    <g
       id="g5298"
       transform="matrix(0.3,0,0,0.3,74.396068,-177.67362)">
      <rect
         inkscape:transform-center-y="-2.6537281"
         inkscape:transform-center-x="2.6775368"
         transform="matrix(0.8970824,0.4418633,-0.8970824,0.4418633,0,0)"
         y="754.31042"
         x="589.34576"
         height="109.83718"
         width="109.83718"
         id="rect2477"
         style="fill:none;fill-opacity:1;fill-rule:nonzero;stroke:#ff0079;stroke-width:3.29522204;stroke-miterlimit:4;stroke-dasharray:none;stroke-opacity:1;display:inline;enable-background:new" />
      <path
         id="path5054"
         d="M -239.00456,644.21332 L -243.01003,642.26634 L -195.4952,618.86612 L -147.98037,595.46588 L -143.99982,597.40501 C -141.81054,598.47154 -140.01929,599.41859 -140.01929,599.50957 C -140.01929,599.60055 -142.94248,601.10585 -146.51526,602.85468 C -150.08804,604.60351 -159.02787,609.00642 -166.38155,612.63892 C -173.73524,616.27142 -182.93049,620.8054 -186.81546,622.71444 C -193.87083,626.18139 -201.05143,629.71825 -222.86273,640.4698 C -229.23009,643.6085 -234.56561,646.17288 -234.71944,646.16841 C -234.87325,646.16394 -236.80156,645.28415 -239.00456,644.21332 L -239.00456,644.21332 z"
         style="opacity:1;fill:#ff0079;fill-opacity:0.58823529;fill-rule:nonzero;stroke:none;stroke-width:1;stroke-linecap:butt;stroke-miterlimit:4;stroke-dasharray:none;stroke-dashoffset:0;stroke-opacity:1" />
      <path
         id="path5056"
         d="M -221.22815,652.97145 C -223.50527,651.86914 -225.32161,650.92433 -225.26447,650.87188 C -225.05678,650.68124 -171.53688,624.33799 -166.50769,621.95096 C -163.66334,620.60093 -154.42507,616.0771 -145.9782,611.898 C -137.53135,607.7189 -130.46556,604.29964 -130.27646,604.29964 C -129.8532,604.29964 -122.10809,608.14331 -122.10809,608.35337 C -122.10809,608.43646 -125.03128,609.93531 -128.60406,611.68415 C -132.17684,613.43297 -141.11667,617.83589 -148.47035,621.46838 C -155.82404,625.10089 -165.01929,629.63486 -168.90426,631.5439 C -175.95963,635.01085 -183.14023,638.54771 -204.95153,649.29927 C -211.31889,652.43797 -216.65441,654.99917 -216.80824,654.99083 C -216.96205,654.98248 -218.951,654.07376 -221.22815,652.97145 z"
         style="opacity:1;fill:#ff0079;fill-opacity:0.58823529;fill-rule:nonzero;stroke:none;stroke-width:1;stroke-linecap:butt;stroke-miterlimit:4;stroke-dasharray:none;stroke-dashoffset:0;stroke-opacity:1" />
      <path
         id="path5058"
         d="M -203.33917,661.77394 L -207.50163,659.75248 L -196.78014,654.46717 C -190.88332,651.56023 -181.9151,647.15261 -176.85078,644.67246 C -171.78645,642.1923 -155.2785,634.08043 -140.16647,626.64609 C -125.05441,619.21174 -112.53958,613.12911 -112.35572,613.12911 C -111.93892,613.12911 -104.19689,616.97574 -104.19689,617.18283 C -104.19689,617.26593 -107.12007,618.76478 -110.69285,620.51361 C -114.26563,622.26244 -123.20547,626.66535 -130.55915,630.29785 C -137.91283,633.93035 -147.10809,638.46433 -150.99306,640.37337 C -158.04843,643.84032 -165.22903,647.37718 -187.04033,658.12873 C -193.40769,661.26743 -198.74321,663.82644 -198.89704,663.81542 C -199.05085,663.80441 -201.04982,662.88573 -203.33917,661.77394 L -203.33917,661.77394 z"
         style="opacity:1;fill:#ff0079;fill-opacity:0.58823529;fill-rule:nonzero;stroke:none;stroke-width:1;stroke-linecap:butt;stroke-miterlimit:4;stroke-dasharray:none;stroke-dashoffset:0;stroke-opacity:1" />
      <path
         id="path5060"
         d="M -185.42797,670.59452 L -189.59043,668.56895 L -179.62575,663.65454 C -174.14518,660.95162 -167.90148,657.91315 -165.75088,656.90238 C -163.60027,655.89162 -146.75199,647.61577 -128.31026,638.5116 C -109.86854,629.40744 -94.626911,621.95857 -94.439979,621.95857 C -94.253072,621.95857 -92.258092,622.88095 -90.006705,624.0083 L -85.913289,626.05803 L -90.198859,628.20756 C -92.555973,629.3898 -95.22237,630.66897 -96.124237,631.05016 C -97.026104,631.43136 -104.23473,634.94784 -112.14341,638.86457 C -120.05209,642.7813 -129.36087,647.37743 -132.82959,649.07819 C -136.2983,650.77895 -143.39341,654.27034 -148.59649,656.83685 C -176.0339,670.37083 -180.73133,672.66306 -180.9868,672.64251 C -181.1401,672.63018 -183.13862,671.70859 -185.42797,670.59452 L -185.42797,670.59452 z"
         style="opacity:1;fill:#ff0079;fill-opacity:0.58823529;fill-rule:nonzero;stroke:none;stroke-width:1;stroke-linecap:butt;stroke-miterlimit:4;stroke-dasharray:none;stroke-dashoffset:0;stroke-opacity:1" />
      <path
         id="path5062"
         d="M -167.51677,679.41097 L -171.67923,677.37289 L -168.16019,675.71265 C -166.22474,674.79952 -144.8259,664.27986 -120.60721,652.33563 L -76.573279,630.61883 L -72.284681,632.75597 L -67.996084,634.8931 L -81.492552,641.56416 C -88.91561,645.23324 -95.499868,648.44346 -96.124237,648.69799 C -96.748607,648.95251 -104.2978,652.64611 -112.90022,656.90598 C -121.50264,661.16584 -130.24381,665.47607 -132.32504,666.48425 C -134.40628,667.49243 -142.10976,671.28214 -149.44389,674.90585 C -156.77805,678.52955 -162.90822,681.48419 -163.06649,681.47172 C -163.22479,681.45924 -165.22742,680.53192 -167.51677,679.41097 L -167.51677,679.41097 z"
         style="opacity:1;fill:#ff0079;fill-opacity:0.58823529;fill-rule:nonzero;stroke:none;stroke-width:1;stroke-linecap:butt;stroke-miterlimit:4;stroke-dasharray:none;stroke-dashoffset:0;stroke-opacity:1" />
      <path
         id="path5064"
         d="M -150.67585,687.6892 C -152.16637,686.98766 -153.38589,686.35691 -153.38587,686.28753 C -153.38587,686.21816 -139.45194,679.29753 -122.42156,670.90836 C -105.39116,662.51919 -84.070882,652.00698 -75.043107,647.5479 L -58.62898,639.44049 L -55.829106,640.85342 L -53.029258,642.26634 L -96.46122,663.65377 C -120.34878,675.41686 -141.7095,685.92398 -143.92948,687.00297 L -147.96581,688.96473 L -150.67585,687.6892 z"
         style="opacity:1;fill:#ff0079;fill-opacity:0.58823529;fill-rule:nonzero;stroke:none;stroke-width:1;stroke-linecap:butt;stroke-miterlimit:4;stroke-dasharray:none;stroke-dashoffset:0;stroke-opacity:1" />
    </g>
    <g
       id="g5265"
       transform="matrix(0.299901,0,0,0.299901,67.345783,-13.230769)">
      <rect
         style="fill:none;fill-opacity:1;fill-rule:nonzero;stroke:#38cd41;stroke-width:3.36934996;stroke-miterlimit:4;stroke-dasharray:none;stroke-opacity:1;display:inline;enable-background:new"
         id="rect2586"
         width="109.83718"
         height="109.83718"
         x="321.75854"
         y="460.57193"
         transform="matrix(0.8970824,0.4418633,-0.8970824,0.4418633,0,0)"
         inkscape:transform-center-x="2.6775368"
         inkscape:transform-center-y="-2.6537281" />
      <path
         id="path5167"
         d="M -137.72087,434.54349 L -142.10342,432.38495 L -141.68987,432.17089 C -140.40138,431.50396 -49.774413,386.88939 -48.512859,386.30097 L -46.991857,385.59154 L -42.626249,387.74555 L -38.26064,389.89956 L -38.966918,390.2579 C -39.355371,390.45499 -57.175747,399.23737 -78.567751,409.77431 C -99.959756,420.31125 -118.32523,429.36073 -119.37992,429.88429 C -124.51677,432.43422 -133.22962,436.71023 -133.28072,436.70638 C -133.3124,436.70399 -135.31047,435.73069 -137.72087,434.54349 z"
         style="opacity:1;fill:#38ce40;fill-opacity:0.58823529;fill-rule:nonzero;stroke:none;stroke-width:1;stroke-linecap:butt;stroke-miterlimit:4;stroke-dasharray:none;stroke-dashoffset:0;stroke-opacity:1" />
      <path
         id="path5169"
         d="M -152.33774,427.33211 C -152.92545,427.04404 -154.90536,426.06817 -156.73754,425.16349 L -160.06877,423.51863 L -158.52136,422.75998 C -152.49383,419.80487 -69.257577,378.82511 -67.381524,377.88906 L -65.01796,376.70976 L -60.603002,378.88784 C -56.970723,380.67979 -56.216827,381.08222 -56.350426,381.15785 C -56.774039,381.39769 -119.84421,412.4533 -120.89616,412.94003 C -121.55841,413.24644 -128.30125,416.55717 -135.88026,420.2972 C -143.45927,424.03722 -150.02228,427.26794 -150.46473,427.47655 L -151.26918,427.85588 L -152.33774,427.33211 z"
         style="opacity:1;fill:#38ce40;fill-opacity:0.58823529;fill-rule:nonzero;stroke:none;stroke-width:1;stroke-linecap:butt;stroke-miterlimit:4;stroke-dasharray:none;stroke-dashoffset:0;stroke-opacity:1" />
      <path
         id="path5171"
         d="M -173.64353,416.79924 L -178.01389,414.64146 L -176.60455,413.99544 C -174.01005,412.80616 -142.35619,397.23118 -115.40176,383.88121 C -103.82476,378.14735 -94.232262,373.42776 -94.085097,373.39322 C -93.937932,373.35868 -91.35041,372.11913 -88.335056,370.63867 L -82.85257,367.94692 L -78.617243,370.06606 L -74.381899,372.1852 L -75.35203,372.6768 C -81.704699,375.89594 -103.048,386.50291 -103.17286,386.50291 C -103.26363,386.50291 -111.06929,390.32603 -120.51872,394.99873 C -129.96816,399.67143 -138.50225,403.87319 -139.48335,404.33598 C -140.46445,404.79876 -147.53618,408.28039 -155.1983,412.07293 C -162.86044,415.86546 -169.16177,418.96588 -169.2013,418.96273 C -169.24083,418.95958 -171.23983,417.98601 -173.64353,416.79923 L -173.64353,416.79924 z"
         style="opacity:1;fill:#38ce40;fill-opacity:0.58823529;fill-rule:nonzero;stroke:none;stroke-width:1;stroke-linecap:butt;stroke-miterlimit:4;stroke-dasharray:none;stroke-dashoffset:0;stroke-opacity:1" />
      <path
         id="path5173"
         d="M -191.62426,407.94639 L -195.78037,405.86674 L -186.18361,401.06467 C -180.90538,398.42353 -176.06507,396.0451 -175.42735,395.77927 C -174.78963,395.51344 -163.06993,389.75592 -149.38356,382.98478 C -135.69719,376.21362 -121.24824,369.0873 -117.27477,367.14848 C -113.30131,365.20968 -108.00336,362.60054 -105.50155,361.35041 L -100.95281,359.07745 L -96.511915,361.23994 L -92.07102,363.40242 L -93.211845,363.91527 C -95.436502,364.91535 -105.53694,369.86023 -114.50985,374.34215 C -123.00689,378.58638 -136.5401,385.25702 -172.33824,402.84627 C -180.40119,406.80796 -187.1039,410.0441 -187.23315,410.03769 C -187.3624,410.03128 -189.33839,409.09019 -191.62426,407.94639 L -191.62426,407.94639 z"
         style="opacity:1;fill:#38ce40;fill-opacity:0.58823529;fill-rule:nonzero;stroke:none;stroke-width:1;stroke-linecap:butt;stroke-miterlimit:4;stroke-dasharray:none;stroke-dashoffset:0;stroke-opacity:1" />
      <path
         id="path5175"
         d="M -209.49834,399.15063 C -214.46243,396.71248 -214.24605,397.03676 -211.63892,395.94262 C -210.9031,395.63381 -200.8691,390.70438 -189.34116,384.98832 C -177.81321,379.27226 -165.45133,373.17052 -161.87031,371.4289 C -158.28929,369.68727 -148.33556,364.78979 -139.75092,360.54562 C -131.16628,356.30144 -122.93841,352.25174 -121.46675,351.54628 L -118.79102,350.26361 L -114.55841,352.36851 C -112.23048,353.52621 -110.38423,354.52884 -110.45562,354.59657 C -110.67383,354.80358 -129.93063,364.38352 -130.12855,364.38352 C -130.23031,364.38352 -137.35363,367.88337 -145.95816,372.16097 C -154.56267,376.43856 -167.42245,382.78959 -174.53544,386.27437 C -181.64843,389.75915 -191.43219,394.56745 -196.27712,396.95948 C -201.12207,399.3515 -205.09553,401.30605 -205.10704,401.3029 C -205.11856,401.29975 -207.09464,400.33123 -209.49834,399.15063 L -209.49834,399.15063 z"
         style="opacity:1;fill:#38ce40;fill-opacity:0.58823529;fill-rule:nonzero;stroke:none;stroke-width:1;stroke-linecap:butt;stroke-miterlimit:4;stroke-dasharray:none;stroke-dashoffset:0;stroke-opacity:1" />
    </g>
    <path
       style="opacity:1;fill:#38ce40;fill-opacity:0.58823529;fill-rule:nonzero;stroke:none;stroke-width:1;stroke-linecap:butt;stroke-miterlimit:4;stroke-dasharray:none;stroke-dashoffset:0;stroke-opacity:1"
       d="M 173.56903,101.44452 C 173.56903,93.361757 173.58343,91.046527 173.63392,91.015327 C 173.75467,90.940697 174.59399,90.926907 174.90004,90.994507 C 175.34255,91.092267 175.79924,91.288917 176.17784,91.544727 L 176.51231,91.770707 L 176.51231,99.800497 L 176.51231,107.8303 L 176.23798,108.30874 C 175.60253,109.41695 174.40583,111.03103 173.76131,111.64919 L 173.56903,111.83361 L 173.56903,101.44452 z"
       id="path5199" />
    <path
       style="opacity:1;fill:#38ce40;fill-opacity:0.58823529;fill-rule:nonzero;stroke:none;stroke-width:1;stroke-linecap:butt;stroke-miterlimit:4;stroke-dasharray:none;stroke-dashoffset:0;stroke-opacity:1"
       d="M 167.57544,105.2623 L 167.57544,94.761297 L 167.78086,94.645847 C 167.89384,94.582347 168.54476,94.144447 169.22734,93.672737 C 169.90992,93.201027 170.47972,92.815087 170.49356,92.815087 C 170.5074,92.815087 170.51872,97.655397 170.51872,103.57133 L 170.51872,114.32758 L 170.26453,114.49074 C 169.90971,114.71849 168.48881,115.41459 167.99018,115.60496 L 167.57544,115.7633 L 167.57544,105.2623 z"
       id="path5201" />
    <path
       style="opacity:1;fill:#38ce40;fill-opacity:0.58823529;fill-rule:nonzero;stroke:none;stroke-width:1;stroke-linecap:butt;stroke-miterlimit:4;stroke-dasharray:none;stroke-dashoffset:0;stroke-opacity:1"
       d="M 161.58186,107.08512 L 161.58186,97.380817 L 161.88956,97.312137 C 162.34573,97.210327 163.44039,96.852697 164.01806,96.616747 L 164.52514,96.409627 L 164.52514,106.48298 L 164.52514,116.55632 L 164.03013,116.62013 C 163.2077,116.72614 162.45037,116.78943 162.0043,116.78943 L 161.58186,116.78943 L 161.58186,107.08512 z"
       id="path5203" />
    <path
       style="opacity:1;fill:#38ce40;fill-opacity:0.58823529;fill-rule:nonzero;stroke:none;stroke-width:1;stroke-linecap:butt;stroke-miterlimit:4;stroke-dasharray:none;stroke-dashoffset:0;stroke-opacity:1"
       d="M 157.48802,116.70196 C 157.37029,116.69317 156.89469,116.65717 156.43112,116.62194 L 155.58827,116.55788 L 155.58827,107.0896 L 155.58827,97.621317 L 155.84246,97.654187 C 156.28193,97.711017 157.57526,97.790937 158.0633,97.791427 L 158.53155,97.791897 L 158.53155,107.26391 L 158.53155,116.73592 L 158.11681,116.72692 C 157.88871,116.72197 157.60575,116.71074 157.48802,116.70196 z"
       id="path5205" />
    <path
       style="opacity:1;fill:#38ce40;fill-opacity:0.58823529;fill-rule:nonzero;stroke:none;stroke-width:1;stroke-linecap:butt;stroke-miterlimit:4;stroke-dasharray:none;stroke-dashoffset:0;stroke-opacity:1"
       d="M 151.62822,115.83468 C 151.26031,115.72672 150.65226,115.52102 150.27699,115.37758 L 149.59469,115.11678 L 149.59469,105.57617 L 149.59469,96.035567 L 150.11645,96.226057 C 150.40342,96.330827 151.06556,96.551417 151.58787,96.716247 L 152.53753,97.015947 L 152.53774,106.52809 L 152.53796,116.04023 L 152.41756,116.0356 C 152.35133,116.03306 151.99613,115.94264 151.62822,115.83468 L 151.62822,115.83468 z"
       id="path5207" />
    <path
       style="opacity:1;fill:#38ce40;fill-opacity:0.58823529;fill-rule:nonzero;stroke:none;stroke-width:1;stroke-linecap:butt;stroke-miterlimit:4;stroke-dasharray:none;stroke-dashoffset:0;stroke-opacity:1"
       d="M 146.11627,113.7367 C 145.67976,113.60892 144.67958,113.43295 144.08273,113.37894 L 143.62786,113.33776 L 143.61433,103.47908 L 143.60082,93.620377 L 144.04245,93.782407 C 144.48977,93.946517 145.82423,94.480317 146.29019,94.681537 L 146.54438,94.791307 L 146.54438,104.31873 C 146.54438,109.55881 146.52632,113.84443 146.50424,113.84234 C 146.48217,113.84024 146.30758,113.7927 146.11627,113.7367 L 146.11627,113.7367 z"
       id="path5209" />
    <path
       style="opacity:1;fill:#38ce40;fill-opacity:0.58823529;fill-rule:nonzero;stroke:none;stroke-width:1;stroke-linecap:butt;stroke-miterlimit:4;stroke-dasharray:none;stroke-dashoffset:0;stroke-opacity:1"
       d="M 137.554,103.14956 L 137.554,92.493997 L 138.04933,92.493997 C 138.55784,92.493997 139.69621,92.608957 140.24309,92.715527 L 140.55079,92.775497 L 140.55079,103.03453 L 140.55079,113.29356 L 139.94876,113.35791 C 139.43598,113.41271 138.06608,113.66178 137.67441,113.77141 L 137.554,113.80512 L 137.554,103.14956 z"
       id="path5211" />
    <path
       style="opacity:1;fill:#38ce40;fill-opacity:0.58823529;fill-rule:nonzero;stroke:none;stroke-width:1;stroke-linecap:butt;stroke-miterlimit:4;stroke-dasharray:none;stroke-dashoffset:0;stroke-opacity:1"
       d="M 131.56041,105.15298 L 131.56041,93.247317 L 131.78785,93.185997 C 132.30371,93.046907 133.16794,92.866757 133.69796,92.787817 C 134.00867,92.741547 134.31706,92.692177 134.38328,92.678097 L 134.50369,92.652497 L 134.50369,103.89281 L 134.50369,115.13313 L 134.25306,115.27897 C 134.11522,115.35919 133.45298,115.79243 132.78142,116.24173 L 131.56041,117.05864 L 131.56041,105.15298 z"
       id="path5213" />
    <path
       style="opacity:1;fill:#38ce40;fill-opacity:0.58823529;fill-rule:nonzero;stroke:none;stroke-width:1;stroke-linecap:butt;stroke-miterlimit:4;stroke-dasharray:none;stroke-dashoffset:0;stroke-opacity:1"
       d="M 125.56683,107.83432 L 125.56683,96.565367 L 125.82102,96.328497 C 126.20637,95.969427 126.6108,95.651537 127.17225,95.266407 C 127.66092,94.931217 128.41513,94.474017 128.47942,94.474017 C 128.49643,94.474017 128.50427,99.910027 128.49684,106.55404 L 128.48335,118.63406 L 128.13551,118.72922 C 127.61436,118.87179 126.67638,119.02669 126.08859,119.06726 L 125.56683,119.10326 L 125.56683,107.83432 z"
       id="path5215" />
    <path
       style="opacity:1;fill:#38ce40;fill-opacity:0.58823529;fill-rule:nonzero;stroke:none;stroke-width:1;stroke-linecap:butt;stroke-miterlimit:4;stroke-dasharray:none;stroke-dashoffset:0;stroke-opacity:1"
       d="M 122.27747,117.11342 C 121.78199,116.29777 121.45128,115.37101 121.21133,114.12576 C 120.99254,112.99031 120.94132,112.32457 120.94887,110.71447 C 120.96481,107.31313 121.2173,105.11848 121.84252,102.94675 C 122.01981,102.33092 122.36755,101.33862 122.4675,101.1633 C 122.493,101.11857 122.51399,104.70289 122.51489,109.25731 C 122.51579,113.75317 122.50622,117.4316 122.49364,117.4316 C 122.48105,117.4316 122.38378,117.28842 122.27747,117.11342 L 122.27747,117.11342 z"
       id="path5217" />
  </g>
  <g
     inkscape:groupmode="layer"
     id="layer1"
     inkscape:label="Oval"
     style="display:inline">
    <rect
       style="opacity:1;fill:#ff0079;fill-opacity:0.58823529;fill-rule:nonzero;stroke:#ff0079;stroke-width:0.88017136;stroke-linecap:butt;stroke-miterlimit:4;stroke-dasharray:none;stroke-dashoffset:0;stroke-opacity:1"
       id="rect2425"
       width="59.119827"
       height="29.119827"
       x="60.440086"
       y="30.440086"
       ry="15"
       rx="15" />
    <rect
       style="opacity:1;fill:none;fill-opacity:0.58823529;fill-rule:nonzero;stroke:#ff0079;stroke-width:0.88017136;stroke-linecap:butt;stroke-miterlimit:4;stroke-dasharray:none;stroke-dashoffset:0;stroke-opacity:1;display:inline;enable-background:new"
       id="rect3201"
       width="59.119827"
       height="29.119827"
       x="60.440086"
       y="60.440086"
       ry="15"
       rx="15" />
    <g
       id="g5317"
       transform="matrix(0.3,0,0,0.3,134.68866,-249.75165)">
      <path
         id="path5090"
         d="M -69.759931,882.48103 C -69.759931,846.30628 -69.759452,846.2716 -69.253574,846.54234 C -68.286823,847.05973 -63.293458,852.23856 -61.612075,854.46767 L -59.921384,856.70912 L -59.921384,882.55519 L -59.921384,908.40125 L -61.60476,910.58181 C -63.265229,912.7327 -69.090002,918.69071 -69.532333,918.69071 C -69.666566,918.69071 -69.759931,903.83702 -69.759931,882.48103 L -69.759931,882.48103 z"
         style="opacity:1;fill:#ff0079;fill-opacity:0.58823529;fill-rule:nonzero;stroke:none;stroke-width:1;stroke-linecap:butt;stroke-miterlimit:4;stroke-dasharray:none;stroke-dashoffset:0;stroke-opacity:1;display:inline;enable-background:new" />
      <path
         id="path5092"
         d="M -89.689295,882.51968 L -89.689295,836.75275 L -87.98647,837.13847 C -87.049916,837.35061 -85.091667,837.97174 -83.634805,838.51874 C -82.177943,839.06576 -80.787302,839.57532 -80.544492,839.65111 C -80.126329,839.78164 -80.103019,842.04331 -80.103019,882.49724 L -80.103019,925.20557 L -82.18425,926.00214 C -84.055592,926.71836 -87.132181,927.67532 -88.995552,928.12075 L -89.689295,928.2866 L -89.689295,882.51968 z"
         style="opacity:1;fill:#ff0079;fill-opacity:0.58823529;fill-rule:nonzero;stroke:none;stroke-width:1;stroke-linecap:butt;stroke-miterlimit:4;stroke-dasharray:none;stroke-dashoffset:0;stroke-opacity:1;display:inline;enable-background:new" />
      <path
         id="path5094"
         d="M -109.61866,882.4899 L -109.61866,835.44147 L -104.82552,835.44147 L -100.03238,835.44147 L -100.03238,882.4899 L -100.03238,929.53834 L -104.82552,929.53834 L -109.61866,929.53834 L -109.61866,882.4899 z"
         style="opacity:1;fill:#ff0079;fill-opacity:0.58823529;fill-rule:nonzero;stroke:none;stroke-width:1;stroke-linecap:butt;stroke-miterlimit:4;stroke-dasharray:none;stroke-dashoffset:0;stroke-opacity:1;display:inline;enable-background:new" />
      <path
         id="path5096"
         d="M -129.54802,882.4899 L -129.54802,835.44147 L -124.75489,835.44147 L -119.96175,835.44147 L -119.96175,882.4899 L -119.96175,929.53834 L -124.75489,929.53834 L -129.54802,929.53834 L -129.54802,882.4899 z"
         style="opacity:1;fill:#ff0079;fill-opacity:0.58823529;fill-rule:nonzero;stroke:none;stroke-width:1;stroke-linecap:butt;stroke-miterlimit:4;stroke-dasharray:none;stroke-dashoffset:0;stroke-opacity:1;display:inline;enable-background:new" />
      <path
         id="path5098"
         d="M -149.72966,882.4899 L -149.72966,835.44147 L -144.81038,835.44147 L -139.89111,835.44147 L -139.89111,882.4899 L -139.89111,929.53834 L -144.81038,929.53834 L -149.72966,929.53834 L -149.72966,882.4899 z"
         style="opacity:1;fill:#ff0079;fill-opacity:0.58823529;fill-rule:nonzero;stroke:none;stroke-width:1;stroke-linecap:butt;stroke-miterlimit:4;stroke-dasharray:none;stroke-dashoffset:0;stroke-opacity:1;display:inline;enable-background:new" />
      <path
         id="path5100"
         d="M -169.65902,882.4899 L -169.65902,835.44147 L -164.86588,835.44147 L -160.07275,835.44147 L -160.07275,882.4899 L -160.07275,929.53834 L -164.86588,929.53834 L -169.65902,929.53834 L -169.65902,882.4899 z"
         style="opacity:1;fill:#ff0079;fill-opacity:0.58823529;fill-rule:nonzero;stroke:none;stroke-width:1;stroke-linecap:butt;stroke-miterlimit:4;stroke-dasharray:none;stroke-dashoffset:0;stroke-opacity:1;display:inline;enable-background:new" />
      <path
         id="path5102"
         d="M -189.58839,882.4899 L -189.58839,835.44147 L -184.79525,835.44147 L -180.00211,835.44147 L -180.00211,882.4899 L -180.00211,929.53834 L -184.79525,929.53834 L -189.58839,929.53834 L -189.58839,882.4899 z"
         style="opacity:1;fill:#ff0079;fill-opacity:0.58823529;fill-rule:nonzero;stroke:none;stroke-width:1;stroke-linecap:butt;stroke-miterlimit:4;stroke-dasharray:none;stroke-dashoffset:0;stroke-opacity:1;display:inline;enable-background:new" />
      <path
         id="path5104"
         d="M -204.85075,928.89931 C -205.96074,928.71505 -207.52197,928.42731 -208.32015,928.25988 L -209.77139,927.95549 L -209.70763,882.53483 L -209.64389,837.11419 L -208.38253,836.7908 C -206.69711,836.35869 -202.18175,835.69374 -200.93292,835.69374 L -199.93147,835.69374 L -199.93147,882.4899 L -199.93147,929.28607 L -201.38203,929.26021 C -202.17983,929.24598 -203.74076,929.08357 -204.85075,928.89931 z"
         style="opacity:1;fill:#ff0079;fill-opacity:0.58823529;fill-rule:nonzero;stroke:none;stroke-width:1;stroke-linecap:butt;stroke-miterlimit:4;stroke-dasharray:none;stroke-dashoffset:0;stroke-opacity:1;display:inline;enable-background:new" />
      <path
         id="path5106"
         d="M -222.76195,922.57885 C -224.01069,921.83072 -226.05408,920.44481 -227.30282,919.49908 L -229.57325,917.77955 L -229.6372,882.55723 L -229.70114,847.3349 L -227.36676,845.58363 C -225.13228,843.90732 -222.61232,842.27085 -220.90951,841.39029 L -220.11311,840.97847 L -220.11311,882.48342 C -220.11311,905.31115 -220.19825,923.97731 -220.30231,923.96374 C -220.40637,923.95019 -221.51321,923.32701 -222.76195,922.57885 z"
         style="opacity:1;fill:#ff0079;fill-opacity:0.58823529;fill-rule:nonzero;stroke:none;stroke-width:1;stroke-linecap:butt;stroke-miterlimit:4;stroke-dasharray:none;stroke-dashoffset:0;stroke-opacity:1;display:inline;enable-background:new" />
      <path
         id="path5108"
         d="M -241.36018,902.3562 C -243.3167,898.14062 -244.58904,894.12988 -245.3816,889.67961 C -245.8316,887.15285 -245.83287,877.83782 -245.38356,875.30019 C -244.61292,870.94775 -242.76269,865.29131 -240.96097,861.77967 L -240.06729,860.03783 L -240.05488,882.42683 C -240.04806,894.74078 -240.08211,904.81583 -240.13055,904.81583 C -240.17899,904.81583 -240.73232,903.709 -241.36018,902.3562 L -241.36018,902.3562 z"
         style="opacity:1;fill:#ff0079;fill-opacity:0.58823529;fill-rule:nonzero;stroke:none;stroke-width:1;stroke-linecap:butt;stroke-miterlimit:4;stroke-dasharray:none;stroke-dashoffset:0;stroke-opacity:1;display:inline;enable-background:new" />
      <rect
         rx="49.999973"
         ry="49.999973"
         y="833.97247"
         x="-247.49519"
         height="97.06604"
         width="197.06598"
         id="rect3199"
         style="fill:none;fill-opacity:1;fill-rule:nonzero;stroke:#ff0079;stroke-width:2.93399978;stroke-linecap:butt;stroke-miterlimit:4;stroke-dasharray:none;stroke-dashoffset:0;stroke-opacity:1;display:inline;enable-background:new" />
    </g>
    <rect
       rx="15"
       ry="15"
       y="120.44009"
       x="60.440086"
       height="29.119827"
       width="59.119827"
       id="rect3309"
       style="opacity:1;fill:#38ce40;fill-opacity:0.58823529;fill-rule:nonzero;stroke:#38ce40;stroke-width:0.88017148;stroke-linecap:butt;stroke-miterlimit:4;stroke-dasharray:none;stroke-dashoffset:0;stroke-opacity:1" />
    <rect
       rx="15"
       ry="15"
       y="150.44009"
       x="60.440086"
       height="29.119827"
       width="59.119827"
       id="rect3311"
       style="opacity:1;fill:none;fill-opacity:0.58823529;fill-rule:nonzero;stroke:#38ce40;stroke-width:0.88017136;stroke-linecap:butt;stroke-miterlimit:4;stroke-dasharray:none;stroke-dashoffset:0;stroke-opacity:1;display:inline;enable-background:new" />
    <g
       id="g5284"
       transform="matrix(0.2999011,0,0,0.2999011,127.40328,-50.551883)">
      <path
         id="path5177"
         d="M -220.54153,528.76194 C -221.25472,525.41966 -221.46523,523.65146 -221.57145,520.11112 C -221.6841,516.35652 -221.49915,513.64887 -220.90736,510.3893 C -220.05068,505.67073 -220.05615,505.61882 -220.03883,518.63947 C -220.03006,525.23738 -220.04962,530.63567 -220.0823,530.63567 C -220.11498,530.63567 -220.32163,529.79249 -220.54153,528.76194 L -220.54153,528.76194 z"
         style="opacity:1;fill:#38ce40;fill-opacity:0.58823529;fill-rule:nonzero;stroke:none;stroke-width:1;stroke-linecap:butt;stroke-miterlimit:4;stroke-dasharray:none;stroke-dashoffset:0;stroke-opacity:1;display:inline;enable-background:new" />
      <path
         id="path5179"
         d="M -201.48398,556.84002 C -203.60636,555.38287 -205.9888,553.38034 -207.99245,551.36938 L -209.8551,549.49996 L -209.8551,518.67633 L -209.8551,487.85271 L -208.9186,486.82484 C -207.11072,484.84059 -201.23588,479.99425 -200.2188,479.64811 C -200.10512,479.60942 -200.04408,493.24083 -200.04408,518.6692 C -200.04408,540.1635 -200.06993,557.74975 -200.10151,557.74975 C -200.13309,557.74975 -200.7552,557.34039 -201.48397,556.84002 L -201.48398,556.84002 z"
         style="opacity:1;fill:#38ce40;fill-opacity:0.58823529;fill-rule:nonzero;stroke:none;stroke-width:1;stroke-linecap:butt;stroke-miterlimit:4;stroke-dasharray:none;stroke-dashoffset:0;stroke-opacity:1;display:inline;enable-background:new" />
      <path
         id="path5181"
         d="M -183.27616,564.60434 C -185.18652,564.20617 -188.25347,563.37065 -189.38575,562.93991 L -189.8763,562.7533 L -189.8763,518.5993 C -189.8763,494.3146 -189.83526,474.4453 -189.7851,474.4453 C -189.73494,474.4453 -188.76225,474.1629 -187.62356,473.81775 C -185.88275,473.29009 -183.34917,472.7165 -180.64503,472.23787 L -180.06529,472.13525 L -180.06529,518.59934 L -180.06529,565.06342 L -180.64503,565.04765 C -180.96389,565.03898 -182.1479,564.83948 -183.27616,564.60434 z"
         style="opacity:1;fill:#38ce40;fill-opacity:0.58823529;fill-rule:nonzero;stroke:none;stroke-width:1;stroke-linecap:butt;stroke-miterlimit:4;stroke-dasharray:none;stroke-dashoffset:0;stroke-opacity:1;display:inline;enable-background:new" />
      <path
         id="path5183"
         d="M -169.8975,518.68407 L -169.8975,471.76957 L -164.9028,471.76957 L -159.9081,471.76957 L -159.9081,518.68407 L -159.9081,565.59857 L -164.9028,565.59857 L -169.8975,565.59857 L -169.8975,518.68407 z"
         style="opacity:1;fill:#38ce40;fill-opacity:0.58823529;fill-rule:nonzero;stroke:none;stroke-width:1;stroke-linecap:butt;stroke-miterlimit:4;stroke-dasharray:none;stroke-dashoffset:0;stroke-opacity:1;display:inline;enable-background:new" />
      <path
         id="path5185"
         d="M -149.74032,518.68407 L -149.74032,471.76957 L -144.83481,471.76957 L -139.92931,471.76957 L -139.92931,518.68407 L -139.92931,565.59857 L -144.83481,565.59857 L -149.74032,565.59857 L -149.74032,518.68407 z"
         style="opacity:1;fill:#38ce40;fill-opacity:0.58823529;fill-rule:nonzero;stroke:none;stroke-width:1;stroke-linecap:butt;stroke-miterlimit:4;stroke-dasharray:none;stroke-dashoffset:0;stroke-opacity:1;display:inline;enable-background:new" />
      <path
         id="path5187"
         d="M -129.76152,518.68407 L -129.76152,471.76957 L -124.85602,471.76957 L -119.95051,471.76957 L -119.95051,518.68407 L -119.95051,565.59857 L -124.85602,565.59857 L -129.76152,565.59857 L -129.76152,518.68407 z"
         style="opacity:1;fill:#38ce40;fill-opacity:0.58823529;fill-rule:nonzero;stroke:none;stroke-width:1;stroke-linecap:butt;stroke-miterlimit:4;stroke-dasharray:none;stroke-dashoffset:0;stroke-opacity:1;display:inline;enable-background:new" />
      <path
         id="path5189"
         d="M -109.78272,518.68407 L -109.78272,471.76957 L -104.87722,471.76957 L -99.971708,471.76957 L -99.971708,518.68407 L -99.971708,565.59857 L -104.87722,565.59857 L -109.78272,565.59857 L -109.78272,518.68407 z"
         style="opacity:1;fill:#38ce40;fill-opacity:0.58823529;fill-rule:nonzero;stroke:none;stroke-width:1;stroke-linecap:butt;stroke-miterlimit:4;stroke-dasharray:none;stroke-dashoffset:0;stroke-opacity:1;display:inline;enable-background:new" />
      <path
         id="path5191"
         d="M -89.803926,518.68407 L -89.803926,471.76957 L -84.898417,471.76957 L -79.992909,471.76957 L -79.992909,518.68407 L -79.992909,565.59857 L -84.898417,565.59857 L -89.803926,565.59857 L -89.803926,518.68407 z"
         style="opacity:1;fill:#38ce40;fill-opacity:0.58823529;fill-rule:nonzero;stroke:none;stroke-width:1;stroke-linecap:butt;stroke-miterlimit:4;stroke-dasharray:none;stroke-dashoffset:0;stroke-opacity:1;display:inline;enable-background:new" />
      <path
         id="path5193"
         d="M -69.825127,518.67285 C -69.825127,480.87006 -69.782048,472.12633 -69.595835,472.12633 C -68.680271,472.12633 -63.930721,473.16427 -61.30738,473.93763 L -60.01411,474.31888 L -60.01411,518.62527 L -60.01411,562.93168 L -60.477225,563.10775 C -61.950109,563.66774 -66.717461,564.77512 -69.156194,565.12375 L -69.825127,565.21938 L -69.825127,518.67285 z"
         style="opacity:1;fill:#38ce40;fill-opacity:0.58823529;fill-rule:nonzero;stroke:none;stroke-width:1;stroke-linecap:butt;stroke-miterlimit:4;stroke-dasharray:none;stroke-dashoffset:0;stroke-opacity:1;display:inline;enable-background:new" />
      <path
         id="path5195"
         d="M -49.846328,518.67897 C -49.846328,487.17716 -49.801447,479.26698 -49.62335,479.37183 C -47.442361,480.65575 -44.297413,483.16699 -41.863728,485.56787 L -40.035311,487.37163 L -40.035311,518.69785 L -40.035311,550.02408 L -41.863728,551.79957 C -43.866691,553.74456 -46.318857,555.74661 -48.463867,557.18826 L -49.846328,558.11738 L -49.846328,518.67897 z"
         style="opacity:1;fill:#38ce40;fill-opacity:0.58823529;fill-rule:nonzero;stroke:none;stroke-width:1;stroke-linecap:butt;stroke-miterlimit:4;stroke-dasharray:none;stroke-dashoffset:0;stroke-opacity:1;display:inline;enable-background:new" />
      <path
         id="path5197"
         d="M -29.844304,518.59488 C -29.843733,506.62284 -29.814032,505.13168 -29.59027,505.84055 C -29.153733,507.2234 -28.470405,510.47984 -28.149156,512.70827 C -27.728281,515.62773 -27.72978,521.70419 -28.1521,524.65987 C -28.463537,526.83956 -29.333899,530.89802 -29.663175,531.70596 C -29.788881,532.01444 -29.844714,527.97253 -29.844286,518.59488 L -29.844304,518.59488 z"
         style="opacity:1;fill:#38ce40;fill-opacity:0.58823529;fill-rule:nonzero;stroke:none;stroke-width:1;stroke-linecap:butt;stroke-miterlimit:4;stroke-dasharray:none;stroke-dashoffset:0;stroke-opacity:1;display:inline;enable-background:new" />
      <rect
         style="fill:none;fill-opacity:1;fill-rule:nonzero;stroke:#38ce40;stroke-width:3;stroke-linecap:butt;stroke-miterlimit:4;stroke-dasharray:none;stroke-dashoffset:0;stroke-opacity:1;display:inline;enable-background:new"
         id="rect3315"
         width="197.06598"
         height="97.06604"
         x="-223.25168"
         y="470.12772"
         ry="49.999973"
         rx="49.999973" />
    </g>
    <rect
       style="opacity:1;fill:#6464c9;fill-opacity:0.58823529;fill-rule:nonzero;stroke:#6464c9;stroke-width:0.88017142;stroke-linecap:butt;stroke-miterlimit:4;stroke-dasharray:none;stroke-dashoffset:0;stroke-opacity:1"
       id="rect3375"
       width="59.119827"
       height="29.119827"
       x="60.440086"
       y="210.44006"
       ry="15.000001"
       rx="15" />
    <rect
       style="opacity:1;fill:none;fill-opacity:0.58823529;fill-rule:nonzero;stroke:#6464c9;stroke-width:0.88017136;stroke-linecap:butt;stroke-miterlimit:4;stroke-dasharray:none;stroke-dashoffset:0;stroke-opacity:1;display:inline;enable-background:new"
       id="rect3377"
       width="59.119831"
       height="29.119829"
       x="60.440086"
       y="240.44006"
       ry="15"
       rx="14.999998" />
    <g
       id="g5252"
       transform="matrix(0.3,0,0,0.3,128.57594,142.42351)">
      <path
         id="path5118"
         d="M -220.86957,195.3716 C -222.8446,191.35542 -224.11783,187.38862 -224.87764,182.88421 C -225.32399,180.23816 -225.48089,178.25329 -225.48089,175.25303 C -225.48089,172.25277 -225.32399,170.2679 -224.87764,167.62185 C -224.11783,163.11744 -222.8446,159.15064 -220.86957,155.13446 L -220.0942,153.55777 L -220.06197,164.36389 C -220.04424,170.30726 -220.04424,180.07012 -220.06197,186.05915 L -220.0942,196.94829 L -220.86957,195.3716 z"
         style="opacity:1;fill:#6464c9;fill-opacity:0.58823529;fill-rule:nonzero;stroke:none;stroke-width:1;stroke-linecap:butt;stroke-miterlimit:4;stroke-dasharray:none;stroke-dashoffset:0;stroke-opacity:1;display:inline;enable-background:new" />
      <path
         id="path5120"
         d="M -201.48926,215.84996 C -204.18467,214.30966 -206.57889,212.64493 -208.96277,210.65352 L -209.94032,209.83691 L -209.94032,175.25303 L -209.94032,140.66915 L -208.96277,139.85254 C -206.57889,137.86113 -204.18467,136.19639 -201.48926,134.6561 L -200.0387,133.82718 L -200.00679,154.49834 C -199.98925,165.86748 -199.98925,184.50912 -200.0068,195.92419 L -200.0387,216.67887 L -201.48926,215.84996 z"
         style="opacity:1;fill:#6464c9;fill-opacity:0.58823529;fill-rule:nonzero;stroke:none;stroke-width:1;stroke-linecap:butt;stroke-miterlimit:4;stroke-dasharray:none;stroke-dashoffset:0;stroke-opacity:1;display:inline;enable-background:new" />
      <path
         id="path5122"
         d="M -181.24456,222.03185 C -181.45268,222.00843 -182.21895,221.92647 -182.94738,221.84972 C -184.41161,221.69545 -186.92239,221.25818 -188.71807,220.8447 L -189.88482,220.57604 L -189.88482,175.25184 L -189.88482,129.92764 L -188.97034,129.71731 C -186.30569,129.10444 -184.03492,128.74903 -180.89768,128.45383 L -180.04627,128.37372 L -180.04627,175.24299 L -180.04627,222.11226 L -180.45621,222.09337 C -180.68168,222.08297 -181.03643,222.05529 -181.24456,222.03186 L -181.24456,222.03185 z"
         style="opacity:1;fill:#6464c9;fill-opacity:0.58823529;fill-rule:nonzero;stroke:none;stroke-width:1;stroke-linecap:butt;stroke-miterlimit:4;stroke-dasharray:none;stroke-dashoffset:0;stroke-opacity:1;display:inline;enable-background:new" />
      <path
         id="path5124"
         d="M -169.95545,175.25303 L -169.95545,128.26766 L -164.97311,128.26766 L -159.99077,128.26766 L -159.99077,175.25303 L -159.99077,222.2384 L -164.97311,222.2384 L -169.95545,222.2384 L -169.95545,175.25303 z"
         style="opacity:1;fill:#6464c9;fill-opacity:0.58823529;fill-rule:nonzero;stroke:none;stroke-width:1;stroke-linecap:butt;stroke-miterlimit:4;stroke-dasharray:none;stroke-dashoffset:0;stroke-opacity:1;display:inline;enable-background:new" />
      <path
         id="path5128"
         d="M -149.89996,175.25303 L -149.89996,128.26766 L -144.91761,128.26766 L -139.93527,128.26766 L -139.93527,175.25303 L -139.93527,222.2384 L -144.91761,222.2384 L -149.89996,222.2384 L -149.89996,175.25303 z"
         style="opacity:1;fill:#6464c9;fill-opacity:0.58823529;fill-rule:nonzero;stroke:none;stroke-width:1;stroke-linecap:butt;stroke-miterlimit:4;stroke-dasharray:none;stroke-dashoffset:0;stroke-opacity:1;display:inline;enable-background:new" />
      <path
         id="path5130"
         d="M -129.84446,175.25303 L -129.84446,128.26766 L -124.92518,128.26766 L -120.00591,128.26766 L -120.00591,175.25303 L -120.00591,222.2384 L -124.92518,222.2384 L -129.84446,222.2384 L -129.84446,175.25303 z"
         style="opacity:1;fill:#6464c9;fill-opacity:0.58823529;fill-rule:nonzero;stroke:none;stroke-width:1;stroke-linecap:butt;stroke-miterlimit:4;stroke-dasharray:none;stroke-dashoffset:0;stroke-opacity:1;display:inline;enable-background:new" />
      <path
         id="path5132"
         d="M -109.91509,175.25303 L -109.91509,128.26766 L -104.93275,128.26766 L -99.95041,128.26766 L -99.95041,175.25303 L -99.95041,222.2384 L -104.93275,222.2384 L -109.91509,222.2384 L -109.91509,175.25303 z"
         style="opacity:1;fill:#6464c9;fill-opacity:0.58823529;fill-rule:nonzero;stroke:none;stroke-width:1;stroke-linecap:butt;stroke-miterlimit:4;stroke-dasharray:none;stroke-dashoffset:0;stroke-opacity:1;display:inline;enable-background:new" />
      <path
         id="path5134"
         d="M -89.859593,175.25303 L -89.859593,128.26766 L -84.940319,128.26766 L -80.021046,128.26766 L -80.021046,175.25303 L -80.021046,222.2384 L -84.940319,222.2384 L -89.859593,222.2384 L -89.859593,175.25303 z"
         style="opacity:1;fill:#6464c9;fill-opacity:0.58823529;fill-rule:nonzero;stroke:none;stroke-width:1;stroke-linecap:butt;stroke-miterlimit:4;stroke-dasharray:none;stroke-dashoffset:0;stroke-opacity:1;display:inline;enable-background:new" />
      <path
         id="path5136"
         d="M -69.930229,175.25303 C -69.930229,131.60063 -69.919608,129.40288 -69.708609,129.40288 C -69.379724,129.40288 -66.250095,130.21348 -64.812734,130.67095 C -64.123947,130.89017 -62.751558,131.38703 -61.762973,131.77509 L -59.965546,132.48065 L -59.965546,175.25303 L -59.965546,218.02542 L -61.762973,218.73097 C -62.751558,219.11902 -64.123947,219.61588 -64.812734,219.83511 C -66.250095,220.29259 -69.379724,221.10318 -69.708609,221.10318 C -69.919608,221.10318 -69.930229,218.90543 -69.930229,175.25303 z"
         style="opacity:1;fill:#6464c9;fill-opacity:0.58823529;fill-rule:nonzero;stroke:none;stroke-width:1;stroke-linecap:butt;stroke-miterlimit:4;stroke-dasharray:none;stroke-dashoffset:0;stroke-opacity:1;display:inline;enable-background:new" />
      <path
         id="path5138"
         d="M -49.874729,175.25303 C -49.874729,155.09978 -49.838478,138.61075 -49.794167,138.61075 C -49.650436,138.61075 -47.969785,140.02692 -46.390143,141.47908 C -44.693233,143.03907 -42.627429,145.32975 -41.055204,147.39481 L -40.036182,148.73325 L -40.036182,175.25303 L -40.036182,201.77281 L -41.055216,203.11124 C -42.627429,205.1763 -44.693221,207.46699 -46.390143,209.02698 C -47.969797,210.47914 -49.650436,211.89531 -49.794167,211.89531 C -49.838478,211.89531 -49.874729,195.40628 -49.874729,175.25303 z"
         style="opacity:1;fill:#6464c9;fill-opacity:0.58823529;fill-rule:nonzero;stroke:none;stroke-width:1;stroke-linecap:butt;stroke-miterlimit:4;stroke-dasharray:none;stroke-dashoffset:0;stroke-opacity:1;display:inline;enable-background:new" />
      <rect
         rx="49.983612"
         ry="49.966724"
         y="126.75421"
         x="-227.0872"
         height="97.001488"
         width="197.0015"
         id="rect3381"
         style="fill:none;fill-opacity:1;fill-rule:nonzero;stroke:#6464c9;stroke-width:2.99851155;stroke-linecap:butt;stroke-miterlimit:4;stroke-dasharray:none;stroke-dashoffset:0;stroke-opacity:1;display:inline;enable-background:new" />
    </g>
  </g>
  <g
     inkscape:groupmode="layer"
     id="layer5"
     inkscape:label="Squiggle">
    <path
       style="fill:#ff0079;fill-opacity:0.58823529;fill-rule:evenodd;stroke:#ff0079;stroke-width:0.8999877;stroke-linecap:butt;stroke-linejoin:miter;stroke-miterlimit:4;stroke-dasharray:none;stroke-opacity:1"
       d="M 120.49445,49.756721 C 120.49445,34.921325 130.22115,32.001725 137.58755,32.001725 C 144.97935,32.001725 149.69195,37.309825 158.10995,37.309825 C 166.50245,37.309825 170.97045,30.450025 174.25905,30.450025 C 177.13475,30.450025 179.55005,33.765125 179.55005,38.806825 C 179.55005,43.822521 175.56785,57.281921 161.29035,57.281921 C 146.98735,57.281921 150.17345,53.733921 141.81565,53.733921 C 133.43235,53.733921 132.63295,59.092021 126.20345,59.535221 C 119.56525,59.991021 120.49445,49.756721 120.49445,49.756721 z"
       id="path4907"
       sodipodi:nodetypes="czzszzzsc" />
    <path
       style="fill:none;fill-opacity:0.58823529;fill-rule:evenodd;stroke:#ff0079;stroke-width:0.89945477;stroke-linecap:butt;stroke-linejoin:miter;stroke-miterlimit:4;stroke-dasharray:none;stroke-opacity:1;display:inline;enable-background:new"
       d="M 120.49418,79.756766 C 120.49418,64.921166 130.22098,62.001456 137.58738,62.001456 C 144.97928,62.001456 149.69188,67.309646 158.10998,67.309646 C 166.50258,67.309646 170.97058,60.449726 174.25928,60.449726 C 177.13488,60.449726 179.55028,63.764946 179.55028,68.806726 C 179.55028,73.822436 175.56808,87.282086 161.29038,87.282086 C 146.98728,87.282086 150.17348,83.734096 141.81558,83.734096 C 133.43218,83.734096 132.63278,89.092226 126.20318,89.535486 C 119.56498,89.991316 120.49418,79.756766 120.49418,79.756766 z"
       id="path4911"
       sodipodi:nodetypes="czzszzzsc" />
    <g
       id="g5341"
       transform="matrix(0.3,0,0,0.3,193.79992,-218.41861)">
      <path
         id="path5066"
         d="M -240.77361,813.11649 C -241.70476,810.19036 -242.37295,806.52409 -242.70776,802.50401 C -243.04328,798.47504 -242.68867,787.55186 -242.05514,782.40257 C -241.66271,779.21282 -240.5734,773.47815 -240.16992,772.47772 C -240.04265,772.16217 -239.94364,781.02644 -239.93438,793.56553 C -239.92557,805.46324 -239.9618,815.19772 -240.01485,815.19772 C -240.0679,815.19772 -240.40935,814.26117 -240.77361,813.11649 z"
         style="opacity:1;fill:#ff0079;fill-opacity:0.58823529;fill-rule:nonzero;stroke:none;stroke-width:1;stroke-linecap:butt;stroke-miterlimit:4;stroke-dasharray:none;stroke-dashoffset:0;stroke-opacity:1;display:inline;enable-background:new" />
      <path
         id="path5068"
         d="M -228.75542,824.85155 L -229.82757,824.75499 L -229.82863,788.50562 L -229.82969,752.25625 L -227.78872,750.30168 C -225.81674,748.41316 -222.3616,745.67603 -220.76422,744.73694 L -219.98902,744.2812 L -219.98902,784.14447 L -219.98902,824.00774 L -220.93503,824.25239 C -222.10809,824.55576 -226.19989,825.05011 -227.05259,824.99149 C -227.39946,824.96763 -228.16573,824.90467 -228.75542,824.85155 L -228.75542,824.85155 z"
         style="opacity:1;fill:#ff0079;fill-opacity:0.58823529;fill-rule:nonzero;stroke:none;stroke-width:1;stroke-linecap:butt;stroke-miterlimit:4;stroke-dasharray:none;stroke-dashoffset:0;stroke-opacity:1;display:inline;enable-background:new" />
      <path
         id="path5070"
         d="M -209.83592,779.73142 L -209.77207,739.69349 L -208.76299,739.33524 C -207.82292,739.00151 -202.47716,737.73275 -200.62726,737.40433 L -199.80738,737.25877 L -199.80738,775.17335 L -199.80738,813.08793 L -204.53746,816.24836 C -207.13899,817.98661 -209.40978,819.48993 -209.58365,819.58907 C -209.8365,819.73325 -209.88698,811.7565 -209.83592,779.73141 L -209.83592,779.73142 z"
         style="opacity:1;fill:#ff0079;fill-opacity:0.58823529;fill-rule:nonzero;stroke:none;stroke-width:1;stroke-linecap:butt;stroke-miterlimit:4;stroke-dasharray:none;stroke-dashoffset:0;stroke-opacity:1;display:inline;enable-background:new" />
      <path
         id="path5072"
         d="M -189.71657,772.34476 L -189.71657,736.55536 L -188.81566,736.40917 C -187.87699,736.25684 -181.11066,736.63666 -180.32593,736.88573 C -179.89699,737.02186 -179.87918,738.62032 -179.94018,771.50915 L -180.00416,805.98985 L -180.63483,806.06031 C -182.22605,806.23806 -186.94992,807.24316 -188.17938,807.66556 C -188.92953,807.92328 -189.58228,808.13415 -189.62994,808.13415 C -189.67757,808.13415 -189.71657,792.02892 -189.71657,772.34476 L -189.71657,772.34476 z"
         style="opacity:1;fill:#ff0079;fill-opacity:0.58823529;fill-rule:nonzero;stroke:none;stroke-width:1;stroke-linecap:butt;stroke-miterlimit:4;stroke-dasharray:none;stroke-dashoffset:0;stroke-opacity:1;display:inline;enable-background:new" />
      <path
         id="path5074"
         d="M -161.99631,806.49279 C -163.43675,806.20579 -168.46498,805.61145 -169.45262,805.61145 C -169.72885,805.61145 -169.7872,799.82747 -169.7872,772.44265 L -169.7872,739.27387 L -167.57984,740.06728 C -166.36579,740.50366 -164.18049,741.33643 -162.72363,741.91789 L -160.07479,742.97509 L -160.01077,774.92394 C -159.97555,792.49581 -160.03231,806.86213 -160.1369,806.84909 C -160.24149,806.83606 -161.07822,806.67572 -161.99631,806.49279 L -161.99631,806.49279 z"
         style="opacity:1;fill:#ff0079;fill-opacity:0.58823529;fill-rule:nonzero;stroke:none;stroke-width:1;stroke-linecap:butt;stroke-miterlimit:4;stroke-dasharray:none;stroke-dashoffset:0;stroke-opacity:1;display:inline;enable-background:new" />
      <path
         id="path5076"
         d="M -142.51175,813.53199 C -143.95199,813.06078 -146.19404,812.20874 -147.49409,811.63858 L -149.85784,810.60192 L -149.85784,778.96944 C -149.85784,761.57159 -149.77192,747.33698 -149.6669,747.33698 C -149.5619,747.33698 -148.5118,747.71548 -147.33339,748.17811 C -146.15501,748.64074 -144.05562,749.39275 -142.66813,749.84925 C -141.28064,750.30576 -140.05986,750.7564 -139.95524,750.85067 C -139.85065,750.94495 -139.79389,765.27958 -139.82911,782.70541 L -139.89316,814.38874 L -142.51175,813.53199 z"
         style="opacity:1;fill:#ff0079;fill-opacity:0.58823529;fill-rule:nonzero;stroke:none;stroke-width:1;stroke-linecap:butt;stroke-miterlimit:4;stroke-dasharray:none;stroke-dashoffset:0;stroke-opacity:1;display:inline;enable-background:new" />
      <path
         id="path5078"
         d="M -126.77509,816.61012 L -129.55007,816.33294 L -129.61412,784.74218 L -129.67815,753.15142 L -128.98344,753.26718 C -127.07166,753.58575 -123.53521,753.89466 -121.79275,753.8953 L -119.83766,753.89601 L -119.83766,785.42981 L -119.83766,816.96361 L -121.91889,816.92546 C -123.06357,816.90447 -125.24886,816.76257 -126.77509,816.61012 z"
         style="opacity:1;fill:#ff0079;fill-opacity:0.58823529;fill-rule:nonzero;stroke:none;stroke-width:1;stroke-linecap:butt;stroke-miterlimit:4;stroke-dasharray:none;stroke-dashoffset:0;stroke-opacity:1;display:inline;enable-background:new" />
      <path
         id="path5080"
         d="M -109.74684,785.38995 L -109.74684,753.24314 L -106.78544,752.52087 C -105.15668,752.12362 -102.94301,751.47705 -101.86616,751.08406 L -99.908294,750.36952 L -99.908294,783.634 L -99.908294,816.89847 L -101.86339,817.05201 C -102.93869,817.13646 -105.15237,817.28007 -106.78266,817.37114 L -109.74684,817.53674 L -109.74684,785.38995 z"
         style="opacity:1;fill:#ff0079;fill-opacity:0.58823529;fill-rule:nonzero;stroke:none;stroke-width:1;stroke-linecap:butt;stroke-miterlimit:4;stroke-dasharray:none;stroke-dashoffset:0;stroke-opacity:1;display:inline;enable-background:new" />
      <path
         id="path5082"
         d="M -89.817476,780.006 C -89.817476,758.27474 -89.727996,745.31881 -89.577895,745.31881 C -89.446134,745.31881 -87.232461,743.90813 -84.658622,742.18397 L -79.97893,739.04911 L -79.97893,774.80179 L -79.97893,810.55446 L -82.16619,811.64372 C -83.991392,812.55268 -89.275902,814.69318 -89.694747,814.69318 C -89.762254,814.69318 -89.817476,799.08395 -89.817476,780.006 z"
         style="opacity:1;fill:#ff0079;fill-opacity:0.58823529;fill-rule:nonzero;stroke:none;stroke-width:1;stroke-linecap:butt;stroke-miterlimit:4;stroke-dasharray:none;stroke-dashoffset:0;stroke-opacity:1;display:inline;enable-background:new" />
      <path
         id="path5084"
         d="M -69.888112,767.79789 L -69.888112,732.48927 L -68.437557,731.91564 C -66.407789,731.11295 -63.277618,731.11295 -61.24785,731.91564 L -59.797295,732.48927 L -59.797295,761.81336 L -59.797295,791.13744 L -61.316442,793.36367 C -63.576508,796.67574 -68.375877,802.29717 -69.421109,802.85656 C -69.874565,803.09924 -69.888112,802.08241 -69.888112,767.79788 L -69.888112,767.79789 z"
         style="opacity:1;fill:#ff0079;fill-opacity:0.58823529;fill-rule:nonzero;stroke:none;stroke-width:1;stroke-linecap:butt;stroke-miterlimit:4;stroke-dasharray:none;stroke-dashoffset:0;stroke-opacity:1;display:inline;enable-background:new" />
      <path
         id="path5088"
         d="M -49.954625,757.20907 L -49.954748,748.1431 L -49.880369,748.47421 C -49.766517,748.98104 -49.53252,750.36341 -49.426658,751.15458 C -49.170219,753.07109 -49.058107,754.63185 -49.025728,756.73606 C -48.991223,758.97846 -49.134939,761.03952 -49.507284,763.64197 C -49.59269,764.23891 -49.883532,765.98492 -49.9275,766.16467 C -49.942671,766.22668 -49.954553,762.30287 -49.954625,757.20907 z"
         style="opacity:1;fill:#ff0079;fill-opacity:0.58823529;fill-rule:nonzero;stroke:none;stroke-width:1;stroke-linecap:butt;stroke-miterlimit:4;stroke-dasharray:none;stroke-dashoffset:0;stroke-opacity:1;display:inline;enable-background:new" />
      <path
         sodipodi:nodetypes="czzszzzsc"
         id="path4909"
         d="M -244.35245,793.91795 C -244.35245,744.46595 -211.92975,734.73355 -187.375,734.73355 C -162.73541,734.73355 -147.02665,752.42755 -118.96635,752.42755 C -90.991172,752.42755 -76.097802,729.56115 -65.135502,729.56115 C -55.549942,729.56115 -47.498832,740.61185 -47.498832,757.41775 C -47.498832,774.13685 -60.772732,819.00235 -108.36494,819.00235 C -156.04211,819.00235 -145.42148,807.17565 -173.28113,807.17565 C -201.22578,807.17565 -203.89046,825.03615 -225.32235,826.51365 C -247.44983,828.03305 -244.35245,793.91795 -244.35245,793.91795 z"
         style="fill:none;fill-opacity:1;fill-rule:evenodd;stroke:#ff0079;stroke-width:2.99818134;stroke-linecap:butt;stroke-linejoin:miter;stroke-miterlimit:4;stroke-dasharray:none;stroke-opacity:1;display:inline;enable-background:new" />
    </g>
    <path
       sodipodi:nodetypes="czzszzzsc"
       id="path3625"
       d="M 120.49445,139.75671 C 120.49445,124.92141 130.22125,122.00171 137.58755,122.00171 C 144.97935,122.00171 149.69195,127.30981 158.10995,127.30981 C 166.50245,127.30981 170.97045,120.45001 174.25915,120.45001 C 177.13475,120.45001 179.55005,123.76521 179.55005,128.80691 C 179.55005,133.82251 175.56795,147.28191 161.29035,147.28191 C 146.98735,147.28191 150.17355,143.73391 141.81575,143.73391 C 133.43235,143.73391 132.63295,149.09201 126.20345,149.53521 C 119.56525,149.99111 120.49445,139.75671 120.49445,139.75671 z"
       style="fill:#38ce40;fill-opacity:0.58823739;fill-rule:evenodd;stroke:#38ce40;stroke-width:0.8999877;stroke-linecap:butt;stroke-linejoin:miter;stroke-miterlimit:4;stroke-dasharray:none;stroke-opacity:1" />
    <path
       sodipodi:nodetypes="czzszzzsc"
       id="path3627"
       d="M 120.49418,169.75679 C 120.49418,154.92119 130.22098,152.00149 137.58738,152.00149 C 144.97928,152.00149 149.69188,157.30969 158.10998,157.30969 C 166.50258,157.30969 170.97058,150.44969 174.25928,150.44969 C 177.13488,150.44969 179.55028,153.76499 179.55028,158.80669 C 179.55028,163.82239 175.56808,177.28209 161.29038,177.28209 C 146.98728,177.28209 150.17348,173.73409 141.81558,173.73409 C 133.43218,173.73409 132.63278,179.09219 126.20318,179.53549 C 119.56498,179.99129 120.49418,169.75679 120.49418,169.75679 z"
       style="fill:none;fill-opacity:0.58823739;fill-rule:evenodd;stroke:#38ce40;stroke-width:0.89945477;stroke-linecap:butt;stroke-linejoin:miter;stroke-miterlimit:4;stroke-dasharray:none;stroke-opacity:1;display:inline;enable-background:new" />
    <path
       sodipodi:nodetypes="czzszzzsc"
       id="path3631"
       d="M 120.49445,109.75659 C 120.49445,94.921117 130.22117,92.001427 137.58753,92.001427 C 144.97934,92.001427 149.69193,97.309577 158.10994,97.309577 C 166.50242,97.309577 170.97039,90.449717 174.25905,90.449717 C 177.13469,90.449717 179.55,93.764907 179.55,98.806647 C 179.55,103.82231 175.56787,117.28184 161.29034,117.28184 C 146.98731,117.28184 150.17347,113.73389 141.81565,113.73389 C 133.43233,113.73389 132.63294,119.09197 126.20343,119.53522 C 119.56524,119.99105 120.49445,109.75659 120.49445,109.75659 z"
       style="fill:none;fill-opacity:1;fill-rule:evenodd;stroke:#38ce40;stroke-width:0.89999193;stroke-linecap:butt;stroke-linejoin:miter;stroke-miterlimit:4;stroke-dasharray:none;stroke-opacity:1;display:inline;enable-background:new" />
    <path
       style="fill:#6464c9;fill-opacity:0.58823529;fill-rule:evenodd;stroke:#6464c9;stroke-width:0.89998758;stroke-linecap:butt;stroke-linejoin:miter;stroke-miterlimit:4;stroke-dasharray:none;stroke-opacity:1"
       d="M 120.49445,229.75666 C 120.49445,214.92133 130.22117,212.00166 137.58754,212.00166 C 144.97934,212.00166 149.69193,217.30977 158.10995,217.30977 C 166.50242,217.30977 170.9704,210.44997 174.25906,210.44997 C 177.1347,210.44997 179.55001,213.76512 179.55001,218.80682 C 179.55001,223.82244 175.56788,237.28185 161.29034,237.28185 C 146.9873,237.28185 150.17348,233.73391 141.81565,233.73391 C 133.43232,233.73391 132.63293,239.09194 126.20342,239.5352 C 119.56524,239.99102 120.49445,229.75666 120.49445,229.75666 z"
       id="path3691"
       sodipodi:nodetypes="czzszzzsc"
       inkscape:export-xdpi="90"
       inkscape:export-ydpi="90" />
    <path
       style="fill:none;fill-opacity:0.58823529;fill-rule:evenodd;stroke:#6464c9;stroke-width:0.89945477;stroke-linecap:butt;stroke-linejoin:miter;stroke-miterlimit:4;stroke-dasharray:none;stroke-opacity:1;display:inline;enable-background:new"
       d="M 120.49418,259.75676 C 120.49418,244.92115 130.22099,242.00144 137.58742,242.00144 C 144.9793,242.00144 149.69192,247.30964 158.11001,247.30964 C 166.50256,247.30964 170.97059,240.44972 174.25927,240.44972 C 177.13495,240.44972 179.55027,243.76493 179.55027,248.80672 C 179.55027,253.82243 175.56811,267.28207 161.29044,267.28207 C 146.98728,267.28207 150.17347,263.7341 141.81557,263.7341 C 133.43218,263.7341 132.63277,269.09222 126.20321,269.53547 C 119.56497,269.99131 120.49418,259.75676 120.49418,259.75676 z"
       id="path3693"
       sodipodi:nodetypes="czzszzzsc" />
    <g
       id="g5229"
       transform="matrix(0.3010215,0,0,0.3000174,190.9139,173.38105)">
      <path
         id="path5140"
         d="M -49.874729,55.735478 L -49.874729,26.593802 L -49.590925,26.744349 C -48.917085,27.101782 -47.467956,28.277813 -46.564689,29.200258 C -43.705557,32.120093 -41.604623,36.335348 -40.356831,41.655485 L -40.036182,43.022621 L -40.036182,51.138818 L -40.036182,59.255016 L -40.360615,60.871578 C -41.335968,65.731403 -43.047131,71.208244 -44.974565,75.63921 C -45.625789,77.136294 -47.33868,80.639912 -47.942413,81.709741 C -48.782133,83.197745 -49.780405,84.877148 -49.825183,84.877148 C -49.852428,84.877148 -49.874729,71.763395 -49.874729,55.735475 L -49.874729,55.735478 z"
         style="opacity:1;fill:#6464c9;fill-opacity:0.58823529;fill-rule:nonzero;stroke:none;stroke-width:1;stroke-linecap:butt;stroke-miterlimit:4;stroke-dasharray:none;stroke-dashoffset:0;stroke-opacity:1;display:inline;enable-background:new" />
      <path
         id="path5142"
         d="M -69.930229,68.613642 L -69.930229,32.799177 L -67.159719,30.867679 C -63.97155,28.645012 -60.451785,26.476542 -60.032209,26.476542 C -59.995554,26.476542 -59.965546,42.40348 -59.965546,61.869736 L -59.965546,97.262932 L -60.616291,97.849801 C -61.862418,98.973628 -64.191694,100.80205 -65.699981,101.84039 C -67.180456,102.85958 -69.697623,104.42811 -69.852731,104.42811 C -69.895352,104.42811 -69.930229,88.311595 -69.930229,68.613644 L -69.930229,68.613642 z"
         style="opacity:1;fill:#6464c9;fill-opacity:0.58823529;fill-rule:nonzero;stroke:none;stroke-width:1;stroke-linecap:butt;stroke-miterlimit:4;stroke-dasharray:none;stroke-dashoffset:0;stroke-opacity:1;display:inline;enable-background:new" />
      <path
         id="path5145"
         d="M -89.859593,77.586041 L -89.859593,44.311087 L -88.377504,43.695624 C -86.072559,42.73846 -82.548859,40.963923 -80.430985,39.693751 L -80.021046,39.447891 L -80.021046,74.121987 L -80.021046,108.79608 L -81.62927,109.25182 C -84.136283,109.96226 -88.561195,110.861 -89.551987,110.861 L -89.859593,110.861 L -89.859593,77.586041 z"
         style="opacity:1;fill:#6464c9;fill-opacity:0.58823529;fill-rule:nonzero;stroke:none;stroke-width:1;stroke-linecap:butt;stroke-miterlimit:4;stroke-dasharray:none;stroke-dashoffset:0;stroke-opacity:1;display:inline;enable-background:new" />
      <path
         id="path5147"
         d="M -105.05286,111.34923 C -107.54703,111.2929 -109.66136,111.21856 -109.7514,111.18401 C -109.88497,111.13275 -109.91509,105.3085 -109.91509,79.539433 L -109.91509,47.957669 L -107.17165,47.879558 C -104.80564,47.812192 -101.29601,47.473092 -100.25149,47.210937 L -99.95041,47.135372 L -99.95041,79.313525 L -99.95041,111.49168 L -100.23421,111.47166 C -100.39031,111.46065 -102.5587,111.40555 -105.05286,111.34923 z"
         style="opacity:1;fill:#6464c9;fill-opacity:0.58823529;fill-rule:nonzero;stroke:none;stroke-width:1;stroke-linecap:butt;stroke-miterlimit:4;stroke-dasharray:none;stroke-dashoffset:0;stroke-opacity:1;display:inline;enable-background:new" />
      <path
         id="path5149"
         d="M -122.65475,109.9104 C -124.78446,109.56414 -126.44373,109.23174 -128.42544,108.75432 L -129.84446,108.41247 L -129.84446,76.589308 C -129.84446,57.955798 -129.79768,44.766149 -129.73161,44.766149 C -129.66954,44.766149 -129.25802,44.876781 -128.81713,45.011998 C -126.72046,45.655014 -122.92152,46.545493 -120.47892,46.966488 L -120.00591,47.048016 L -120.00591,78.639168 L -120.00591,110.23033 L -120.41585,110.21904 C -120.64132,110.21283 -121.64882,110.07394 -122.65475,109.9104 z"
         style="opacity:1;fill:#6464c9;fill-opacity:0.58823529;fill-rule:nonzero;stroke:none;stroke-width:1;stroke-linecap:butt;stroke-miterlimit:4;stroke-dasharray:none;stroke-dashoffset:0;stroke-opacity:1;display:inline;enable-background:new" />
      <path
         id="path5151"
         d="M -141.19663,104.02407 C -143.58396,102.89189 -147.1196,101.59261 -149.36388,101.02272 L -149.89996,100.88659 L -149.89996,68.916185 C -149.89996,51.332453 -149.88351,36.945765 -149.86341,36.945765 C -149.84331,36.945765 -147.61545,37.873466 -144.9126,39.007322 L -139.99834,41.06888 L -139.96656,72.811556 C -139.94908,90.270033 -139.97746,104.54935 -140.02963,104.54338 C -140.08179,104.5374 -140.60694,104.30371 -141.19663,104.02406 L -141.19663,104.02407 z"
         style="opacity:1;fill:#6464c9;fill-opacity:0.58823529;fill-rule:nonzero;stroke:none;stroke-width:1;stroke-linecap:butt;stroke-miterlimit:4;stroke-dasharray:none;stroke-dashoffset:0;stroke-opacity:1;display:inline;enable-background:new" />
      <path
         id="path5153"
         d="M -169.95545,65.421044 L -169.95545,30.800077 L -168.85177,30.975537 C -167.17004,31.242897 -163.92176,31.989285 -161.8828,32.576868 L -160.05384,33.10393 L -160.02205,66.369453 L -159.99031,99.634968 L -162.79703,99.638651 C -165.42208,99.642082 -168.1817,99.776769 -169.41938,99.961847 L -169.95545,100.04202 L -169.95545,65.421044 z"
         style="opacity:1;fill:#6464c9;fill-opacity:0.58823529;fill-rule:nonzero;stroke:none;stroke-width:1;stroke-linecap:butt;stroke-miterlimit:4;stroke-dasharray:none;stroke-dashoffset:0;stroke-opacity:1;display:inline;enable-background:new" />
      <path
         id="path5155"
         d="M -189.88482,69.316917 L -189.88482,31.289729 L -189.53795,31.217145 C -188.22418,30.942245 -184.22289,30.52849 -181.90677,30.428038 L -180.04627,30.347347 L -180.04627,66.357358 L -180.04627,102.36736 L -181.27609,102.84816 C -182.95259,103.50357 -186.20956,105.14255 -188.11893,106.29162 C -188.98611,106.81347 -189.73819,107.26379 -189.79022,107.29228 C -189.84225,107.32079 -189.88482,90.231865 -189.88482,69.316914 L -189.88482,69.316917 z"
         style="opacity:1;fill:#6464c9;fill-opacity:0.58823529;fill-rule:nonzero;stroke:none;stroke-width:1;stroke-linecap:butt;stroke-miterlimit:4;stroke-dasharray:none;stroke-dashoffset:0;stroke-opacity:1;display:inline;enable-background:new" />
      <path
         id="path5157"
         d="M -209.94032,78.265581 L -209.94032,38.354316 L -208.5213,37.541544 C -207.74084,37.094519 -206.27924,36.344836 -205.27332,35.875581 C -203.53715,35.06568 -200.37705,33.792385 -200.10317,33.792385 C -200.01748,33.792385 -199.97564,46.967979 -199.97564,73.948447 L -199.97564,114.10451 L -201.39466,114.87374 C -203.28239,115.89704 -204.74689,116.57469 -206.24504,117.11807 C -207.33617,117.51383 -209.58761,118.17566 -209.84572,118.17653 C -209.89775,118.17669 -209.94032,100.21678 -209.94032,78.265581 z"
         style="opacity:1;fill:#6464c9;fill-opacity:0.58823529;fill-rule:nonzero;stroke:none;stroke-width:1;stroke-linecap:butt;stroke-miterlimit:4;stroke-dasharray:none;stroke-dashoffset:0;stroke-opacity:1;display:inline;enable-background:new" />
      <path
         id="path5159"
         d="M -220.91408,118.31144 C -221.78357,118.03473 -223.24155,117.31417 -224.03191,116.77056 C -225.00189,116.10343 -226.60652,114.48894 -227.41333,113.36839 C -227.82433,112.79757 -228.54515,111.56262 -229.01514,110.62407 L -229.86968,108.91764 L -229.86968,87.740467 C -229.86968,68.734283 -229.84905,66.49019 -229.66842,65.850143 C -227.62869,58.622641 -224.41467,52.216257 -220.49279,47.560724 L -220.03114,47.012717 L -220.03114,82.783984 C -220.03114,102.45818 -220.07371,118.55008 -220.12574,118.54375 C -220.17777,118.53741 -220.53252,118.43289 -220.91408,118.31144 z"
         style="opacity:1;fill:#6464c9;fill-opacity:0.58823529;fill-rule:nonzero;stroke:none;stroke-width:1;stroke-linecap:butt;stroke-miterlimit:4;stroke-dasharray:none;stroke-dashoffset:0;stroke-opacity:1;display:inline;enable-background:new" />
      <path
         sodipodi:nodetypes="czzszzzsc"
         id="path3697"
         d="M -233.93488,87.911146 C -233.93488,38.459126 -201.62252,28.726746 -177.15133,28.726746 C -152.59558,28.726746 -136.94028,46.420726 -108.97547,46.420726 C -81.095486,46.420726 -66.252802,23.554326 -55.327797,23.554326 C -45.774858,23.554326 -37.751147,34.605066 -37.751147,51.411006 C -37.751147,68.130026 -50.979875,112.99553 -98.410136,112.99553 C -145.92506,112.99553 -135.34057,101.16891 -163.10542,101.16891 C -190.95497,101.16891 -193.61058,119.02934 -214.96954,120.50685 C -237.02172,122.0263 -233.93488,87.911146 -233.93488,87.911146 z"
         style="fill:none;fill-opacity:1;fill-rule:evenodd;stroke:#6464c9;stroke-width:2.99489117;stroke-linecap:butt;stroke-linejoin:miter;stroke-miterlimit:4;stroke-dasharray:none;stroke-opacity:1;display:inline;enable-background:new" />
    </g>
  </g>
</svg>
